<svg xmlns="http://www.w3.org/2000/svg" xmlns:xlink="http://www.w3.org/1999/xlink" viewBox="0,0,256,256" width="60px" height="60px" fill-rule="nonzero"><g transform=""><g fill="#373f47" fill-rule="nonzero" stroke="none" stroke-width="1" stroke-linecap="butt" stroke-linejoin="miter" stroke-miterlimit="10" stroke-dasharray="" stroke-dashoffset="0" font-family="none" font-weight="none" font-size="none" text-anchor="none" style="mix-blend-mode: normal"><g transform="scale(5.12,5.12)"><path d="M5,4c-1.65625,0 -3,1.34375 -3,3c0,1.65625 1.34375,3 3,3c0.25,0 0.49609,-0.03125 0.73438,-0.09375l2.28125,3.42578c-0.24609,0.36328 -0.45312,0.73828 -0.53906,1.14063c0,0.00391 0.00391,0.00781 0.00781,0.01172c-0.30469,0.78125 -0.48437,1.625 -0.48437,2.51563c0,0.55078 0.44922,1 1,1c0.55078,0 1,-0.44922 1,-1c0,-0.30469 0.03125,-0.60156 0.08594,-0.89062c0.96875,0.98828 1.94141,1.97656 2.92578,2.97656c0.00391,0.31641 0.01953,0.63281 0.0625,0.94531c0.03516,0.31641 0.09375,0.62891 0.16016,0.9375c0,0.01172 0,0.02344 0.00391,0.03125c0.22266,1.02734 0.59375,2.01953 1.15234,2.96484c-0.21094,0.43359 -0.39062,0.98828 -0.39062,1.53516c0,2.09766 0.75781,3.98828 2,5.35938v2.54688c-4.12891,3.46484 -8.50781,6.81641 -12,8.59375c4.17188,0 8.25,-0.85547 12.71094,-3.26172c1.41406,2.83984 4.58984,6.26172 6.28906,6.26172h6c1.33203,0 3.80469,-2.25781 5.42578,-4.6875c1.02734,2.83203 3.57422,4.6875 3.57422,4.6875v-4c0,-0.29297 0.04688,-0.59375 0.125,-0.90234c3.38672,1.38281 6.60156,1.90234 9.875,1.90234c-2.45312,-1.25 -5.35937,-3.30078 -8.29687,-5.59375c0.67578,-1.50781 1.29688,-3.25391 1.29688,-5.40625c0,-4.76953 -1.93359,-11.75391 -1.98437,-11.9375c0.97656,-0.99219 1.9375,-1.97266 2.90234,-2.95312c0.05078,0.28906 0.08203,0.58594 0.08203,0.89063c0,0.55078 0.44922,1 1,1c0.55078,0 1,-0.44922 1,-1c0,-0.89062 -0.17969,-1.73437 -0.48437,-2.51562c0.00391,-0.00391 0.00781,-0.00781 0.01172,-0.01172c-0.08984,-0.40234 -0.29687,-0.77734 -0.54297,-1.14062l2.28125,-3.42578c0.23828,0.05859 0.48828,0.09375 0.73438,0.09375c1.65625,0 3,-1.34375 3,-3c0,-1.65625 -1.34375,-3 -3,-3c-1.65625,0 -3,1.34375 -3,3c0,0.44531 0.10156,0.88672 0.29688,1.28906l-2.70703,2.69922c-0.38281,-0.22656 -0.79687,-0.40625 -1.22266,-0.5625c-0.01172,-0.00391 -0.08984,-0.04687 -0.08984,-0.04687c0,0 -0.00781,0.01172 -0.01172,0.01172c-0.71094,-0.24609 -1.46875,-0.39062 -2.26562,-0.39062c-0.55078,0 -1,0.44922 -1,1c0,0.55078 0.44922,1 1,1c0.27344,0 0.53906,0.02734 0.80078,0.07031c-0.29297,0.33594 -0.62891,0.71484 -1.00781,1.14063c-2.28906,-2.63672 -6.01953,-4.21094 -9.59375,-4.21094h-2.39844c-3.57422,0 -7.30469,1.57422 -9.59375,4.21094c-0.37891,-0.42578 -0.71484,-0.80469 -1.00781,-1.14062c0.26172,-0.04297 0.52734,-0.07031 0.80078,-0.07031c0.55078,0 1,-0.44922 1,-1c0,-0.55078 -0.44922,-1 -1,-1c-0.79297,0 -1.55078,0.14453 -2.26562,0.39063l-0.01172,-0.01172c0,0 -0.07422,0.04297 -0.08203,0.04688c-0.42969,0.15234 -0.84766,0.33203 -1.23047,0.5625l-2.70703,-2.69922c0.19531,-0.40234 0.29688,-0.84375 0.29688,-1.28906c0,-1.65625 -1.34375,-3 -3,-3zM23.80078,11h2.39844c2.98828,0 6.80469,1.46875 8.66797,4.25391c-2.09766,-1.12891 -5.28906,-2.25391 -9.86719,-2.25391c-4.57812,0 -7.76953,1.125 -9.86719,2.25391c1.86328,-2.78516 5.67969,-4.25391 8.66797,-4.25391zM14.29297,21h21.41406c-0.23047,0.82813 -0.58594,1.63281 -1.09766,2.39453l-0.41016,0.60938l0.46094,0.57422c0.22656,0.27734 0.33984,0.58984 0.33984,0.92188c0,0.3125 -0.02734,0.61328 -0.07031,0.91016c-0.01172,0.07813 -0.02344,0.15625 -0.03906,0.23047c-0.04297,0.25 -0.09766,0.48828 -0.17187,0.72266c-0.02344,0.08203 -0.05078,0.16406 -0.07812,0.24609c-0.01953,0.05078 -0.04297,0.10156 -0.0625,0.15234c-0.05469,0.14453 -0.11328,0.28516 -0.17578,0.42188c-0.03906,0.07813 -0.07812,0.15234 -0.12109,0.23047c-0.05078,0.09375 -0.10156,0.1875 -0.15625,0.27734c-0.02734,0.04297 -0.05078,0.08203 -0.07812,0.12109c-0.04297,0.0625 -0.08203,0.12891 -0.125,0.1875c-0.09375,0.13281 -0.19141,0.25391 -0.29297,0.375c-0.03516,0.03906 -0.06641,0.08203 -0.10156,0.12109c-0.01172,0.01172 -0.02344,0.02344 -0.03125,0.03516c-0.16016,0.17188 -0.32031,0.33203 -0.49609,0.47656c-0.62109,0.51172 -1.34375,0.875 -2.15625,1.00391l-0.84375,0.13281v4.85547c0,0.55078 -0.44922,1 -1,1h-8c-0.55078,0 -1,-0.44922 -1,-1v-4.85547l-0.84375,-0.13281c-0.8125,-0.12891 -1.53516,-0.49219 -2.15625,-1.00391c-0.17578,-0.14453 -0.33594,-0.30469 -0.49609,-0.47656c-0.02734,-0.03125 -0.05859,-0.0625 -0.08594,-0.09375c-0.13281,-0.15234 -0.25391,-0.30859 -0.37109,-0.47266c-0.05859,-0.08984 -0.11719,-0.18359 -0.17187,-0.27734c-0.08594,-0.13672 -0.16797,-0.26953 -0.23828,-0.41406c-0.10547,-0.21094 -0.19922,-0.43359 -0.27734,-0.66016c-0.01562,-0.04687 -0.03906,-0.08594 -0.05078,-0.13281c-0.19922,-0.61328 -0.30859,-1.28125 -0.30859,-1.98047c0,-0.30859 0.22266,-0.77734 0.33984,-0.92187l0.46094,-0.57422l-0.41016,-0.61328c-0.51172,-0.76172 -0.86719,-1.5625 -1.09766,-2.39062zM21.26172,23c-1.47266,0 -2.99219,0.04688 -3.77344,0.82422c-0.3125,0.30859 -0.48047,0.70313 -0.48437,1.13281c-0.03906,1.33984 0.28906,2.375 0.98047,3.08984c0.76563,0.78516 1.74609,0.95313 2.43359,0.95313h0.89453c1.43359,0 2.6875,-1.28906 2.6875,-2.75391v-0.58594c0,-1.10547 -0.78125,-2.66016 -2.51953,-2.66016zM28.73828,23h-0.21875c-1.73828,0 -2.51953,1.55469 -2.51953,2.66016v0.58594c0,1.46484 1.25391,2.75391 2.6875,2.75391h0.89453c0.6875,0 1.67188,-0.16797 2.43359,-0.95312c0.69531,-0.71484 1.02344,-1.75781 0.98438,-3.06641c-0.00391,-0.44141 -0.17187,-0.84375 -0.48828,-1.15625c-0.78125,-0.77734 -2.28906,-0.83203 -3.77344,-0.82422zM25,29c-2.09766,0 -3,3.45703 -3,4.55469c0,0.69531 0.30469,1.05078 0.5625,1.22656c0.58594,0.40234 1.21094,0.16016 1.66797,-0.01562c0.25391,-0.09766 0.54688,-0.21094 0.76953,-0.21094c0.22266,0 0.51563,0.11328 0.76953,0.21094c0.27734,0.10547 0.60938,0.23438 0.96094,0.23438c0.23438,0 0.47266,-0.05859 0.70703,-0.21875c0.25781,-0.17578 0.5625,-0.53125 0.5625,-1.22656c0,-1.17187 -1.03125,-4.55469 -3,-4.55469zM17,32.39453c0.32031,0.16016 0.65234,0.29688 1,0.40234v3.20313c0,1.65234 1.34766,3 3,3h1v2h2v-2h2v2h2v-2h1c1.65234,0 3,-1.34766 3,-3v-3.20312c0.34766,-0.10547 0.67969,-0.24219 1,-0.40234v3.99219c0,2.00781 -3.96094,6.35938 -5.03125,6.61328l-5.91797,0.00391c-1.05078,-0.22656 -5.05078,-4.62109 -5.05078,-6.61719z"></path></g></g></g></svg>